<svg id="visual" viewBox="0 0 900 600" width="900" height="600" xmlns="http://www.w3.org/2000/svg" xmlns:xlink="http://www.w3.org/1999/xlink" version="1.1"><rect x="0" y="0" width="900" height="600" fill="#fff"></rect><path d="M0 75L30 72.7C60 70.3 120 65.7 180 73.7C240 81.7 300 102.3 360 112.8C420 123.3 480 123.7 540 118.2C600 112.7 660 101.3 720 91.2C780 81 840 72 870 67.5L900 63L900 0L870 0C840 0 780 0 720 0C660 0 600 0 540 0C480 0 420 0 360 0C300 0 240 0 180 0C120 0 60 0 30 0L0 0Z" fill="#000" stroke-linecap="round" stroke-linejoin="miter"></path></svg>